
<svg xmlns="http://www.w3.org/2000/svg" width="202" height="155" viewBox="0 0 202 155">
    <style>
    .favicon { fill: #1C1916; }
    @media (prefers-color-scheme: dark) {
        .favicon { fill: #ffffff; }
    }
</style>
  <path class="favicon" fill-rule="evenodd" d="m72.79911.124.37786-.0568.32163-.04135c.69755-.07609 1.02962.00047 1.10137.43535.07751.4704-.60187.80775-1.35439 1.04082l-.35002.10027a11.24078 11.24078 0 0 1-.17423.04478l-.33759.07924-.87117.17725-.0986.02464.10038.02218.56665.1021.48336.09924.3515.0845c.8928.23083 1.84522.61231 1.8291 1.22898.07934.075.15112.11144.22064.1406l.13759.05782c.09181.04442.18589.11291.29478.27958-.053 1.063-2.21.906-2.697.726.16823.18376.3027.30801.40991.3959l.14121.10748.1794.12084c.07029.05415.08712.10337.08548.27178-.36288.81432-1.3411.64938-2.00677.39912l-.20904-.08536a3.84366 3.84366 0 0 1-.09345-.04275l-.16-.08104-.11774-.06897c-.634-.409-1.982-.146-3.409.887-.08182.05945-.02864.08246.10428.09436l.46647.02126.23663.01526c.36567.03069.7657.1029 1.01362.30212.413.333.715.876.168 1.203-.57429.34229-1.25405.40898-1.96631.45422l-.53916.03387c-.36198.0252-.72753.06091-1.08753.13891l-.71268.1613-.19626.0362-.23003.03167-.29647.02965-.39556.03018c-.07082.0049-.15342.00724-.24672.00741l-.31097-.00551-.57293-.02698-1.99974-.12114-.86522-.03945-.5944-.01762a32.20011 32.20011 0 0 0-.60102-.00771c-.42369.0979-.93442.25001-1.47814.43276l-.66482.23248a34.59267 34.59267 0 0 0-.3378.12443l-.67338.25959-.65313.26633c-.7421.31112-1.40047.61752-1.82673.85441l-.23844.13728-.28408.1715-.69555.43654-3.82455 2.46422-1.25757.79483-1.32117.81792-1.02116.61764-1.0382.6127-.69764.40193-.69926.39406a73.07123 73.07123 0 0 1-.34949.19336l-.69723.37796a60.60387 60.60387 0 0 1-.34715.18403l-.68986.35676a49.4437 49.4437 0 0 1-.34211.17215l-.67713.33042a39.56033 39.56033 0 0 1-.33441.1577l-.89835 4.35761-.61464 3.09183-.35701 1.84556.088-.163c1.772-2.459 5.403-3.609 8.577-3.071 3.33672.5651 4.79047 2.19861 5.75223 4.35086l.1749.4095.16541.42084a20.6923 20.6923 0 0 1 .07978.21443l.155.43636c.0254.07353.05063.14745.07571.22174l.2231.6782c.02462.07638.04923.15307.07387.23007-.69984 1.12257-.38978 1.87907.04966 2.59722l.39891.63204c.20676.34068.38483.6942.44243 1.09474-.01444.38063-.19866.48256-.4102.53953l-.27585.06687c-.17899.05258-.3332.14572-.37295.4266.3911.39444.35351.79321.24216 1.26763l-.11056.44932c-.06184.26312-.1155.5505-.1166.87105-.00093.22754.01508.45998.03745.69021l.09827.89234c.041.42346.05097.80022-.05472 1.07345-.26448.68688-.88793.94729-1.61697 1.12384l-.56262.12205-.38535.07975c-.51537.11077-1.03074.24772-1.47106.51236l-.22871.10484a7.70604 7.70604 0 0 0-.1159.05662l-.23354.12161-.23397.13278-.2322.14393-.2282.15507a5.92218 5.92218 0 0 0-.11192.0817l-.21805.17175c-.10683.08865-.21008.18146-.3085.27842l-.19004.19946c-.91434 1.02498-1.26289 2.46474.2024 4.31085l.15263.18597.09443.10674.15834.19463.16233.2141.19538.27469.22458.33723.16404.26055.17415.28981.18312.31965.19095.35007.19763.38108.20317.41267c.03426.07144.0687.14423.1033.21836l.20934.46115c.03515.0796.0704.16057.10574.24293l.21293.51093a28.642 28.642 0 0 1 .32084.8302l.21318.59683c.03541.1024.07074.20628.10596.31164l.20991.65012.10368.33862c.1016.338.21777.67485.3505 1.0137l.16737.40777a14.651 14.651 0 0 0 .28255.61788l.21049.41784.22907.42398c.03977.07124.08035.14279.12175.21467l.2584.43545c.04476.0733.09037.147.13685.22108l.28945.44965c.05002.07582.10095.1521.1528.22885l.32223.46655.34504.47933a35.0324 35.0324 0 0 0 .1813.24483l.3807.50076.40542.51656.43092.53357.45718.55178.48421.5712.512.59182.54058.61366.8661.96407.93468 1.01999 1.00586 1.07998.35155.37403 15.797 2.833c1.274.0566 2.16415-.33992 2.76788-.70356l.24149-.15242.38458-.25875c.0806-.05276.14996-.09444.20905-.12027.63886-.28108 1.46485-.46093 2.31608-.57461l.46584-.05566a19.47621 19.47621 0 0 1 .23298-.0233l.4624-.03834.45283-.02837.4374-.01967.61442-.01596.54688-.00349.90276.01638.2154.00902c.06848 1.16214-.80587 1.53332-1.7149 1.7264l-.3208.06175-.61474.10308-.2762.0533c-.4792.1043-.794.25478-.69835.61747.1349.51363 1.717.65062 3.15199.5959l.4464-.02343a14.59904 14.59904 0 0 0 .21604-.01609l.41081-.04012c.39384-.0451.73116-.10446.96176-.17226.23614-.06948.47914-.15678.72368-.2529l.36732-.14969 1.07612-.46092c.11476-.0477.22727-.09312.33685-.1351l.3193-.1146c.56685-.18713 1.02517-.23679 1.26473.03821.29968.32386-.19443.90636-1.10936 1.4965l-.30248.18632-.32785.18508-.3506.18207c-.12037.06-.2441.1192-.37075.1773l-.38828.1708a13.94517 13.94517 0 0 1-1.03032.38694l-.4291.13415c-.5766.16965-1.16863.30084-1.74826.37484l.9331.10122c.51178.04978.8809.06045 1.5749.00978.23113-.01704.47066-.0595.71432-.11271l.36805-.08607.55663-.13538c.86542-.20042 1.7157-.30858 2.367.30316.078.18828-.40828.46537-1.09633.73796l-.33057.12516a14.61282 14.61282 0 0 1-.17356.0617l-.3587.12037-.36756.11463-.3685.10685-.36152.09705-.34661.08518-.3238.0713-.15085.0298.427.026.38856-.03453.78092-.0868c.53581-.04575.89236.00644 1.31552.45233-.01558.3952-.77672.62596-1.65935.767l-.35805.05181-.36213.0433-.35734.03586-.5076.04214-.30653.02189-1.678.037c.28121.05874.60495.15536.9103.27676l.25582.10982c.57977.26898 1.01644.62207.82288.95442-1.32244.31583-2.84329-.13006-4.28851-.7209l-.53788-.22717-.52758-.23352-.76503-.34641c-2.099-.95-4.439-1.237-6.47-1.299l-.99125.01396-.72397.0044-1.17961-.00338-1.00866-.01301-1.08674-.024-1.1676-.03669-.82468-.03236-1.3085-.06167-1.39675-.07895-.98155-.06308-1.02283-.07202-1.6134-.12594-1.71088-.14893-1.1961-.11292-1.24148-.12441c-2.61867-.27-3.73556-.78533-4.88637-1.69919l-.31586-.25922-.32446-.27968-.89422-.79321-.4091-.3567c-.89173-.7-1.86072-1.67168-2.79434-2.6879l-.5879-.6501-.74182-.84451-1.78327-2.0787-.39287-.44817-.2337-.2585-.3038-.31832-.16873-.1607c-.12873-.11547-.22714-.18363-.29056-.1951l-.12414.05276-.1538.0785-.13589.07733-.16225.1002-.18834.12557-.21417.1534-.23972.18374-.265.21653a12.58823 12.58823 0 0 0-.1419.12134l-.30242.27039a15.73446 15.73446 0 0 0-.16045.14966l-.33922.3298a19.41641 19.41641 0 0 0-.1787.18078c-.10402.10635-.21253.22663-.32416.35964l-.227.28261a10.53562 10.53562 0 0 0-.23286.31439l-.23632.344c-.31629.47744-.63525 1.02808-.9309 1.62892l-.21696.45967c-1.0589 2.34182-1.6986 5.30842-.5488 7.68577l.93358 1.9081.85008 1.70505 1.49742 2.9753.3024.61312.3218.67696.3124.70201.49131 1.06335.95872 2.00769 3.41166 7.01205.79771 1.66456.50596 1.08369.28025.62683.21823.5239.46101 1.15717 1.07901 2.74405.53982 1.35119.43208 1.0599.37595.9009.24755.57954.36262.82408.34722.7535.2202.45405.20927.40907c.20324.38477.38762.69392.54575.90294l.1092.14751.23155.33054.24834.37615c.04274.06638.08615.13456.13021.20452l.27202.44064.28677.48099.45607.79258.32011.57272.33202.60573.51858.96592.35823.67909.55405 1.06611.96121 1.88595 1.2001 2.40276 1.43658 2.92408 5.14688 10.61016 1.3036 2.63354.75334 1.4789.54405 1.02976.28592.5192.25318.43916.14965.24588.1337.20666.11715.16597c.05435.07257.10228.12934.14349.16948.12121.11794.2731.25059.44797.39527l.37808.30461.42564.33195.93919.72689.48615.38542.51762.4264.35609.30822.33643.3079.2102.20401.19675.20223.18138.19979.16412.1967c.80011 1.00711.83337 1.86398-1.07562 2.16261l-.3545.05412-.6686.09467-.61711.07732-.56855.0609-.5229.04542-.48013.03084-.44028.0172a13.71706 13.71706 0 0 1-.40334.0045l-.3693-.0073a9.9804 9.9804 0 0 1-.1728-.00779l-.32368-.02325-.29691-.03272-.27304-.04128a6.24824 6.24824 0 0 1-.12848-.02356l-.24267-.05237a5.80285 5.80285 0 0 1-.11493-.02858l-.21885-.06138-.30621-.10087-.38235-.14606a22.69215 22.69215 0 0 1-.09337-.03781c-.353-.144-1.222-1.712-1.06-3.009.08194-.658-.45668-1.70325-1.15192-2.74912l-.3062-.44715a24.20552 24.20552 0 0 0-.15776-.22148l-.31975-.43457-.47502-.61819-.58214-.72588-.74521-.91161-2.46005-3.16004-1.57117-2.06495-1.14068-1.52872-.97441-1.33-.58494-.8112-.70209-.98891-.70072-1.00702-.4525-.66334-.43756-.65333-.41983-.64024a64.77117 64.77117 0 0 1-.2024-.31424l-.38805-.61481a48.44316 48.44316 0 0 1-.18495-.2998l-.35-.58241-.3212-.55698c-.45877-.81482-.8109-1.53334-1.01424-2.10862l-.20005-.597c-.7806-2.17497-2.2724-4.10743-3.66177-5.67663l-.51462-.5712-.73309-.78983-.65785-.70525c-.27089-.29394-.50996-.5614-.70449-.8005l-1.21206-1.52156-10.05286-12.49632-.2769-.33287-.27589-.319a14.54378 14.54378 0 0 0-.13785-.15344l-.2761-.29297c-1.15236-1.17915-2.33743-1.8147-3.84868-.99282-1.07346.58436-2.42804 1.62083-3.80606 2.78708l-.68977.59245-.68652.60513-.6761.60886-.65855.60362-.93922.87606-2.41878 2.3018-.4719.43899-1.89314 1.71233-.86066.7894-.56832.53539c-1.49996 1.43324-2.84438 2.89749-3.28598 4.07189-.4182 1.11187-.5527 3.0369-.60235 5.11046l-.01666.89581-.02675 3.11072-.01297.83377-.0217.788c-.01363.38064-.03183.73974-.05658 1.07079l-.10385 1.11424-.24723 2.57714-.11823 1.34623-.12137 1.56043-.05641.8539-.04472.81908-.03028.76742-.0131.6989.00215.41955.01183.3766c.01975.4124.06088.72695.12922.90796.07866.209.21263.44847.37754.71015l.21118.32414.59646.88277.24142.37374c.6314 1.00742 1.1304 2.0898.6984 2.9762-.28034.57533-.66167 1.033-1.06093 1.47085l-.51667.55974c-.57052.62691-1.10497 1.29897-1.36114 2.30146l-.06826.31095-.1628.88721-.08263.42513-.0893.41712c-.328 1.44218-.83726 2.67809-2.14327 3.08554l-.76496.23615-.46406.13795-.45643.1289-.43883.11511-.42875.1013-.27821.05817-.27068.04951-.26192.03985-.25194.02917-.24075.01749c-1.3693.06597-2.10457-.51589-1.11366-2.64619l.08919-.18641c.6-1.22133.78266-1.92267.91214-2.69837l.062-.3968.0985-.65456a25.52065 25.52065 0 0 1 .03936-.24227c.072-.428.17453-.9027.2927-1.38982l.18716-.73573a45.44676 45.44676 0 0 1 .09889-.36682l.20143-.71552a66.63895 66.63895 0 0 1 .09976-.34227l.36006-1.19084c.40752-1.31953.71407-3.69318.66119-5.63611l-.02406-.50635-.06783-.7222-.94275-8.55514-.19068-1.82208-.20395-2.03655-.22757-2.43552-.15747-1.85234-.13425-1.78064-.0869-1.35082-.05129-.9591-.03804-.90492-.0174-.56966-.01323-.79884a34.22968 34.22968 0 0 1-.0008-.25038l.00905-.69979c.002-.0733.00433-.14507.007-.21526l.02021-.40196a12.0522 12.0522 0 0 1 .01332-.18617l.03326-.3414c.03779-.32024.0893-.57599.15619-.75777l.33001-.87966.41302-1.02378.22269-.52084.34218-.76496.29198-.62332.21209-.43776.34509-.6881.2485-.47862.4012-.74588.2869-.51479.30284-.52795a49.09567 49.09567 0 0 1 .15749-.26868l.32732-.5463.34406-.55758.3611-.56812.37847-.57793.39616-.58697a50.56346 50.56346 0 0 1 .20482-.29664l.4233-.59914a50.84057 50.84057 0 0 1 .4418-.60631l.4606-.61274.47975-.61843c.16314-.207.32952-.41483.4992-.62336l.51897-.62754a51.369 51.369 0 0 1 .81625-.94752l.56982-.63474c1.74066-1.90692 3.76345-3.835 6.10739-5.69334.14873-.11793.2958-.2313.44068-.34068l.4276-.31677 1.17335-.84192a22.94069 22.94069 0 0 0 .17554-.12912l.33045-.25257c.89513-.7074 1.428-1.3591 1.28238-2.31394-.00634-.04233-.01712-.09422-.03193-.15547l-.09247-.33809-.3806-1.25744-.23622-1.0464c-.75063-3.45484-1.13769-6.57782-1.28014-9.35719l-.03552-.82348a49.14608 49.14608 0 0 1-.02731-1.19642l-.00195-.77164a46.8446 46.8446 0 0 1 .00364-.378l.01605-.74031a44.91679 44.91679 0 0 1 .02716-.71935l.03756-.6983a43.04146 43.04146 0 0 1 .02245-.34124l.0518-.6666.06043-.6454.06831-.6241.0755-.60274.08197-.58132.08772-.55981.09276-.53825.09709-.5166.1007-.4949.1036-.4731.1593-.66867.16179-.61927.10806-.38527.16063-.5364.10506-.3298.15277-.45285.09759-.2739.13821-.36865.20264-.50133.1583-.35902.13905-.28669-.02636-.1659-.0289-.2559-.01837-.2342-.01407-.28425a10.90597 10.90597 0 0 1-.00447-.16066l-.00191-.35793.01001-.40615.025-.45362a15.89808 15.89808 0 0 1 .01907-.24439c.1065-1.231 1.09775-3.32825 2.2645-5.4225l.41792-.7376.42557-.72887.4263-.71163h-.00001l.42007-.6859.6033-.96205.55035-.85638.474-.72207.1199-.19512.22307-.34358.19688-.29593c.3037-.46326.47881-.80104.42815-1.37837-.3485-3.94027-.12445-7.63335.36753-10.87835l.1284-.8018a49.0667 49.0667 0 0 1 .1385-.78243l.14756-.76236a49.32511 49.32511 0 0 1 .07684-.37344l.15914-.73096a49.31414 49.31414 0 0 1 .08204-.35735l.16835-.69798.17317-.67513.17693-.65158c.02975-.1066.0596-.21218.08955-.31674l.18059-.61494.1817-.58964.18176-.56365.18076-.53696.26696-.75387.17363-.46718.25131-.64593.23716-.57802.28803-.661.24808-.53053.19965-.39446a7.33271 7.33271 0 0 1 .04136-.0767l.1386-.2123.27187-.39914a18.40309 18.40309 0 0 1 .13246-.18668l.25601-.34728.2415-.31202.22382-.27623.29567-.34603.30288-.33101.20719-.20831c.37148-.32897 1.02362-.74452 1.82412-1.19483l.5542-.30478.58945-.31167.61598-.31514.63381-.3152.64293-.31186.96243-.45402.93394-.42729.87606-.38903.27408-.11918c.34863-.15082.73078-.30836 1.13805-.47035l.84554-.32927a83.98861 83.98861 0 0 1 .44324-.16783l.91805-.33956.94774-.3414c.1596-.05684.31982-.11358.48034-.17015l1.80932-.62697 2.9685-.99378 3.21796-1.05408 1.27862-.3769 1.37865-.391.82251-.22612.6797-.17488.10878-.02071.6737-.24573c.33878-.12763.6821-.26707 1.0373-.43927.578-.282 1.182-.541 1.792-.842l.10478-.05518.26281-.15413.69665-.42397.40988-.23597c.63663-.35325 1.35788-.68425 1.98188-.73575l1.12325-.08338.8838-.05659.19542-.02308.19465-.03663.24109-.05823L70.26797.5912l.2698-.05976.81997-.15897.82323-.14674.61814-.10173Zm35.01516 1.6529c1.63458-.26165 3.3253-.13638 4.83927.15505l.52662.1094a19.1426 19.1426 0 0 1 1.0001.25155l.46894.13785.44515.14302.4191.14603.39077.14688c.06264.02443.124.04881.18405.0731l.344.14412.30999.13959c.0487.02277.0959.04525.14152.06742l.2547.12874.21498.11881a4.1419 4.1419 0 0 1 .09189.05501l.15115.09988a1.43685 1.43685 0 0 1 .0587.04432l.04707.04023c.63875.5915 1.48555 1.18396 2.41481 1.79378l.81377.52735.83657.53815.8418.55125c.27952.1862.55698.37495.82945.56665l.43367.31281 1.05672.8485 1.26907 1.04073 1.08459.90766.9303.79374.954.83149.71333.63596.69764.63688.45022.42079.43404.41474.41416.40612.39059.39492a26.083 26.083 0 0 1 .36334.38113l.3324.36477c.36831.41502.66594.79136.86653 1.11058l.35173.56676.53113.8792 1.227 2.09104 1.53496 2.6797 2.21802 3.94089 2.86916 5.17641.14375.15816.21054.21504.185.17691.2167.19452c.80996.70238 2.13955 1.58264 3.327 1.11237l-.004-.364c-.74359-.37036-1.30859-.96487-.81657-1.90268l.07758-.13632c.27571-.44857.19326-.78286.0861-1.0054l-.1191-.2136c-.06067-.10908.13557-.32808.30964-.49163l.18962-.16673.04774-.03864-.16-1.03.717-.333c.059-.319.128-.606.207-.856-.013-.014-.024-.031-.046-.037-.29-.083-.507-1.051.042-1.243.14666-.05147.30961-.13259.46973-.22389l.23567-.14214.2171-.14281.25942-.1835.14708-.11066-.323-.598.954.113.059-.08.11747-.33938.12374-.33867.15433-.40036c.30798-.77576.74547-1.74056 1.17624-2.22337l.1831-.18683.06154-.07704.08861-.13077.15466-.249.10813-.16178.08267-.11063.09353-.11152a2.2598 2.2598 0 0 1 .05146-.05575l.11358-.11073c.66658-.60473 2.05474-1.12097 5.67994-.69617 1.521.209 2.708.709 4.036 1.454 3.76625 2.1163 4.30906 7.44444-.04206 12.99486l-.21794.27314c-2.13993 2.63099-2.46904 7.06128-1.9364 11.08299l.084.58537.09562.578c.01688.09563.0342.1909.05198.28575l.11186.56406.12184.55284c.0422.18224.08597.36236.13118.5401l.13984.5258c.024.08635.04832.17205.07297.25705l.1516.50148.15862.48335c.08096.23688.1643.46639.24965.68765l.17326.43128c.67364 1.60915 1.45092 2.69995 2.1643 2.88263l.0867.01826-.45163-.03912-.75905-.08617-.67714-.093-.58669-.09164-.64698-.11253-.4616-.08757-.48354-.09826-.50358-.10953-.52166-.12136a35.73541 35.73541 0 0 1-.267-.0653l-.54517-.14016-.5584-.15342-.56972-.16722a32.3935 32.3935 0 0 1-.2885-.08897l-.58304-.18902a30.27393 30.27393 0 0 1-.58952-.20423l-.59404-.22004c-1.68773-.64634-3.40672-1.48971-4.95876-2.58807l-1.78689.93332-.71918.36545-1.05896.52552-.4296.2079c-.28544.13692-.5678.26982-.83987.3945l-.3995.18031c-.08784.03878-.18127.0902-.27907.15366l-.14984.10411-.15548.12168-.16023.13877-.16404.15538-.16695.17153-.16895.1872-.17003.2024-.1702.21712a8.75394 8.75394 0 0 0-.08488.11394l-.16874.23833-.16663.25187a9.98563 9.98563 0 0 0-.1636.26495l-.15966.27755a10.44763 10.44763 0 0 0-.07807.14335l-.15203.29556-.14582.30698a10.6957 10.6957 0 0 0-.07028.15762l-.13477.32323a10.66222 10.66222 0 0 0-.12626.33346l-.11684.34322-.1065.35251c-.92615 3.27255-.43473 7.65672 4.63987 11.51458 4.25068 3.23125 7.30717 1.71227 9.43319-.82005l.26637-.3285a13.83442 13.83442 0 0 0 .25639-.33776l.24652-.34533a16.24605 16.24605 0 0 0 .1196-.17496l.23195-.35342.22239-.35665.21295-.35816.20363-.35794.19444-.356.18536-.35231.2613-.5178.3178-.66143.80238-1.7617.1796-.37131.07852-.14732.07114-.11945.0639-.08987c.03017-.03724.05766-.06274.08254-.07553l.02403-.00851.06475 5.65094.01031 2.28371-.00794 2.13823-.01814 1.04471-.01678.48617-.01392.255-.01624.19383a1.95967 1.95967 0 0 1-.00904.07241l4.15064 1.225 2.56447.7748 1.95606.60517 1.55068.49504 1.04977.35005.44068.154.5347.19894 1.58694.63047.43238.16146.24757.08308c.77537.24327 1.07006.14598 1.41438-.40477l.10531-.17894.11147-.20682.57191-1.1249.48676-.92875.46836-.8612a62.17252 62.17252 0 0 1 .45214-.80228l.43812-.752.42629-.71035.62203-1.00634 1.55324-2.4532c.5206-.83056 1.04652-1.69475 1.59934-2.6777l1.59517-2.86652.43435-.79477.43207-.80358.40553-.7723.24363-.47772.21384-.43413.17688-.37867c.078-.1735.13945-.32175.18029-.43807.272-.744 2.448-1.91 4.018-1.163.99103.47095 2.32652.74118 3.7583.90867l.57725.06176.584.05219.58721.04401.87911.05376 3.0248.14267.71826.04479.44168.0359c.0709.00649.14037.01324.20837.0203l.38958.04612c.9265.12542 1.48604.33104 1.43044.71483-.216 1.484-2.288 1.941-3.516 1.762-.06614-.00956-.1557-.01276-.266-.01014l-.24749.01284a8.09986 8.09986 0 0 0-.143.01194l-.32158.03433-.56233.07581-.64402.10212-.70968.12518-.75927.14501-.79281.16161-.53926.11536-.54228.12035-.83298.19356-.97318.24094-.69074.18277-.43466.12137-.60364.17942-.3646.11673-.32986.11351a10.62928 10.62928 0 0 0-.1507.05531l-.27054.10724c-.37353.1572-.59742.29703-.61338.40774l-.02968.11388-.10028.2995-.21595.59204-.23916.63077-.63419 1.62123-.80881 2.0078-.81961 1.98617-.89608 2.12187-.73348 1.69803-.69766 1.58024-.56225 1.24617-.5603 1.21442-.41582.88127-.40963.84913-.40125.81088-.39069.7665-.37793.71602-.2438.44627-.2365.4193-.22858.39051-.22.35991a16.34422 16.34422 0 0 1-.10657.16791l-.20591.31061-.19571.27548c-.34906.47173-.64343.75718-.86516.80609-.4162.0908-1.08104.12192-1.90201.11016l-.64356-.0166-.69343-.0311-.73463-.04403-.76716-.05539-1.19276-.10093-.81054-.07688-1.21717-.12579-1.57991-.17898-1.46719-.1803-1.56975-.20804-1.2581-.17938-2.83216-.3857-2.98663-.37804c.00933.16987-.02576.47099-.0957.86743l-.08121.42688-.10232.48245-.12128.53002-.13814.56962-.23415.91119-.17095.63366-.18035.6453-.18763.64897-.29042.96285-.29481.92616-.19544.58376a39.43247 39.43247 0 0 1-.09659.27878l-.18958.52636a24.89145 24.89145 0 0 1-.09247.2456l-.17895.451c-.23258.56297-.43915.96535-.59701 1.12197l.031 1.01154.02133 1.55064.00165.99151-.0082 1.14479-.02108 1.28139-.0227.92613-.07755 2.6393-.03476 1.5216-.01636 1.19306-.004.80964.00293.81455c.00114.13587.00261.2717.00445.4074l.01562.8115.0256.80254.03677.788a43.0215 43.0215 0 0 0 .02296.3868l.05583.75576c.1673 1.97988.48628 3.65636 1.0605 4.55485 2.39572 3.74057 3.14352 6.99551 3.29443 12.3014l.0198.90374.00983.94433.00095.98753c-.0064 1.2996.09728 2.39664.22156 3.37426l.23535 1.71337c.10071.75321.17439 1.45477.16109 2.16037-.01284.56205-.30862 1.4568-.7721 2.53079l-.24518.55122-.26993.57683-.29148.59818-.30983.61526-.32497.62808-.50886.95685-.34884.64149-.70631 1.27242-1.03303 1.8183-.92447 1.60758c-1.0768 1.864-1.6837 1.4971-1.92431.37887l-.04085-.2181a5.14153 5.14153 0 0 1-.01725-.11499l-.02825-.24046-.02005-.25266-.012-.26267-.0041-.27053.00835-.4158.015-.28068.02237-.28097.02959-.27906.03665-.275.04357-.26877.05033-.26037a7.60752 7.60752 0 0 1 .02766-.12636l.91703-3.57833.42618-1.71044.33284-1.39749.23155-1.02582.14098-.65922a53.62163 53.62163 0 0 0 .06552-.3194l.11952-.61374.10202-.57405c.15404-.91951.2246-1.64248.15865-2.01296l-.10185-.51355-.29236-1.33974-1.45009-6.4401-.6023-2.73212-.37908-1.7797-.25202-1.24074-.15012-.7888-.07834-.44588-.05896-.3741a9.7329 9.7329 0 0 1-.02167-.15807l-.02666-.25396-.00455-.09424c-.01734-.82333-.42519-2.00022-.89506-3.041l-.22007-.46891c-.18507-.37974-.37184-.7282-.54161-1.01752l-.19438-.31702a5.8257 5.8257 0 0 0-.08883-.13388l-.08205-.11567c-.0628-.0849-.15137-.23419-.26033-.43546l-.17805-.33935-.20458-.40802-.34781-.72044-.3848-.8226-.54705-1.20148-.693-1.56536-.52238-1.2124-.2394-.5673-.41506-1.01033-.23959-.61236a18.22057 18.22057 0 0 1-.06352-.17022l-.09948-.28261-.03495-.11007-2.52123 1.21902-2.11102.9945-1.55499.71238-.74283.33167-.71095.31008-.6647.28096-.60409.24429-.36195.13876-.32437.11688-.28253.09276-.23644.0664c-.10598.02624-.19308.04176-.2589.0453l.84492-1.27977.62824-.97307.73326-1.15812.59372-.95746.61163-1.00826.40901-.68911.40391-.69477.39359-.69365.37804-.68577a50.27872 50.27872 0 0 0 .18155-.33782l.34492-.66127c.3315-.65.62006-1.26279.8422-1.80793.41295-1.00985.54575-2.87476.499-5.10213l-.0221-.7552-.03456-.778-.04621-.79675-.05703-.81143-.06701-.82206-.07618-.82864-.08451-.83116-.09202-.82963a96.29524 96.29524 0 0 0-.04856-.41297l-.10172-.81974-.10716-.80807-.16912-1.18136-.17669-1.1323-.12062-.72086-.12192-.68892-.12238-.65294-.12203-.61288-.12084-.56879-.11882-.52063a25.6905 25.6905 0 0 0-.0584-.24099l-.11425-.4408a14.38269 14.38269 0 0 0-.05564-.1988l-.10781-.35184c-.08774-.26694-.16993-.46683-.24441-.58911l-.062-.09913-.13826-.20622-.15672-.21781-.26837-.35105-.53079-.6599-.7627-.93823-.42787-.53834-.45606-.58985-.31867-.42383-.32964-.4497-.33997-.47674-.3497-.505-.35878-.53443-.36725-.56505a45.4367 45.4367 0 0 1-.1866-.29438l-.37878-.61322-.38567-.64681-.39196-.6816-.3976-.71757-.40262-.75474a56.8097 56.8097 0 0 1-.612-1.2044l-.44412.148-.45635.16716-.43384.16948-.50536.209-.57064.25004-.41358.19025-.43794.20962-.46045.22945-.4811.24973-.49988.27045-.51682.29164a32.67578 32.67578 0 0 0-.26418.15391l-.53873.32427-.93808.81708c-.73222.63064-1.48752 1.23222-2.38492 1.68092-.1801.0901-.3826.20092-.60281.32806l-.46264.27474a35.06448 35.06448 0 0 0-.24643.15126l-.51787.32544-1.10668.71525-1.60014 1.04435-.82523.52735-.51937.3219-.48504.28909c-.23255.13504-.4491.25485-.64498.35506l-.8445.42123c-.43396.22565-.86203.46397-1.2868.70506l-1.26703.72164c-.63116.35507-1.26073.69407-1.89748.98357-.57.25955-1.24393.45421-1.95923.63491l-1.31873.32115c-.44547.10935-.89232.22467-1.32704.35694l-.51284.15978-.99579.31854-.48852.14897-.486.1356c-1.45702.38183-2.91764.51697-4.72085-.18889.31748-.6456.82973-.65197 1.36514-.58313l.3811.05394c.39816.05406.78676.07619 1.09576-.16381-.6672-.40337-1.34816-.56826-2.00004-.6803l-.81872-.12955c-.53062-.08645-1.02638-.19253-1.46027-.43515-.00265-.56467.41647-.70667.83573-.79607l.30788-.06298c.09825-.02156.18992-.04562.26842-.07795l-.74928-.32546c-.53911-.2467-.82472-.48568-.55472-1.11854.41277.07639.7987.21227 1.1885.37009l.95875.40166c.74825.304 1.58875.58175 2.70075.61425.12706-.066.25626-.1249.38664-.17987l.39373-.15625.3951-.15154c.5908-.23326 1.16693-.51454 1.64153-1.13134-.2623-.29524-.66295-.39447-1.0781-.47692l-.3565-.07074c-.47237-.09999-.91746-.24493-1.1504-.70234-.05293-.92693.3463-1.11804 1.0468-1.0289l.23105.03693.25003.05238.26793.06463.43319.11296c.398.1055.75625.15425 1.0915.19125l.48771.05231c.15822.01825.31279.03919.46579.06844.2586.0501.52008.1353.77947.22895l.51453.19067c.424.15513.833.28438 1.204.26438.78621-.04183 1.73568-.66285 2.63027-1.3936l.4082-.34334.39563-.34868 1.24101-1.13795 2.83876-2.65738.88271-.81303.5699-.51522.53952-.47706a38.67244 38.67244 0 0 1 .2542-.21973l.46895-.39292c.21967-.17914.41545-.33053.57985-.44609.864-.60756 1.76553-1.14321 2.66078-1.64893l1.98525-1.10505c.4306-.2422.85141-.4848 1.25697-.73302l1.75807-1.86215.69825-.71904.33442-.33108.33064-.34317c.16216-.1732.31933-.3482.47052-.52228l.29408-.34613.27631-.33884.25676-.32671.34452-.45676.29042-.40224.504-.7446.079-.33465.07796-.37265.05681-.3038.0559-.3376a14.06066 14.06066 0 0 0 .0263-.17864l.04682-.37134c.0908-.81999.10284-1.71904-.15178-2.28432-1.9359-4.28556-1.34858-6.5603-.2175-7.80194l.16506-.17045a4.00323 4.00323 0 0 1 .08491-.08016l.17376-.15056.17796-.13808.18086-.12625.1825-.11504.16525-.09827.19404-.12948.25054-.17857.46748-.34889.558-.43097.62654-.49603.90409-.73314.70112-.58161.4662-.3934.6812-.586.63997-.5659.3929-.3577.35832-.33615.31722-.30958c.44177-.4419.7229-.77706.74458-.92883l-1.2348-2.38088-.9816-1.9349-1.08194-2.18451-.61835-1.28204-.43506-.92278a99.64683 99.64683 0 0 1-.20913-.45155l-.39602-.87392c-.12633-.28356-.24652-.55852-.3591-.82234l-.26026-.62387-1.10675-2.78205-.37032-.90818-.25413-.60419-.25899-.59566a40.04956 40.04956 0 0 0-.13105-.29263l-.26473-.5708-.26754-.5462c-.62687-1.2407-1.26996-2.22771-1.88247-2.5929l-.13076-.0686c-.0938-.04246-.22314-.12328-.38232-.23665l-.26042-.19375-.30084-.23823-.33697-.27836-.36879-.31414-.39629-.34558-.85789-.76805-.91625-.8416-.70477-.65852-1.39174-1.3237-1.27112-1.23473-.554-.5473-.57206-.57397-.49332-.50898-.23663-.25933-.05848-.07315c-.0124-.01766-.0176-.02846-.01511-.03196-.617-.539-1.282-1.016-2.047-1.374-.01629.004-.0502-.00286-.09035-.0147l-.1842-.06703-.05545-.02327-.26351.07015-.49636.12032-.46579.09908-.32898.06004-.3275.04887a6.52562 6.52562 0 0 1-.15886.01854l-1.3666.12239c-.02336.00161-.04057.00253-.0504.00261-.04427-.03333-.17458-.09042-.34979-.15462l-.29133-.09957c-.47208-.15113-1.06728-.29621-1.31688-.24581-.19439.03877-.65987.01433-1.1276-.03335l-.3952-.04562-.35867-.05142c-.1093-.01748-.20623-.035-.28453-.05161-.247-.136-.422-.286-.485-.452.2376-.49815.7099-.60588 1.23227-.65288l.53223-.03897c.47578-.03835.9425-.11555 1.2705-.46315-.3544-.85-1.13443-.9799-2.05755-.9302l-.3313.0241-1.06053.11129-.3269.02858c-1.2514.09325-2.46636-.03254-3.08072-1.45677.33314-.368.49681-.4751.70671-.56145l.37649-.14396a4.89226 4.89226 0 0 0 .2648-.11659l.18498-.03482.23366-.05394.2542-.06414.66016-.1801.02373-.09698c.04445-.15767.15718-.46657.38627-.61202Z"/>
</svg>
